<?xml version="1.0" encoding="UTF-8"?>
<svg id="Layer_2" data-name="Layer 2" xmlns="http://www.w3.org/2000/svg" viewBox="0 0 45 90">
  <defs>
    <style>
      .cls-1 {
        fill: #fff;
      }

      .cls-2 {
        fill: #0b824c;
      }

      .cls-3 {
        fill: #8ac33f;
      }
    </style>
  </defs>
  <g id="Layer_1-2" data-name="Layer 1">
    <g>
      <path class="cls-2" d="m7.03,0h37.97v90H7.03c-3.88,0-7.03-3.15-7.03-7.03V7.03C0,3.15,3.15,0,7.03,0Z"/>
      <g>
        <g>
          <path class="cls-3" d="m23.13,62.62l-7.67-9.11h6.42c.65,0,1.27.29,1.69.78l7.67,9.11h-6.42c-.65,0-1.27-.29-1.69-.78Z"/>
          <path class="cls-3" d="m23.13,72.54l-7.67-9.11h6.42c.65,0,1.27.29,1.69.78l7.67,9.11h-6.42c-.65,0-1.27-.29-1.69-.78Z"/>
          <circle class="cls-3" cx="28.13" cy="53.8" r="2.2"/>
        </g>
        <g>
          <path class="cls-1" d="m26.83,38.46c0-.09.04-.17.11-.24l.74-.68c.52.43.91.95,1.19,1.58s.42,1.37.42,2.23c0,.77-.13,1.46-.4,2.08-.26.62-.63,1.15-1.11,1.59-.47.44-1.04.77-1.7,1.01-.66.24-1.38.35-2.17.35s-1.51-.12-2.17-.38-1.23-.6-1.7-1.06c-.47-.45-.84-1-1.11-1.63s-.39-1.33-.39-2.1.12-1.43.37-2.01c.25-.58.57-1.09.98-1.51l.79.56c.05.04.1.08.14.14.04.05.06.13.06.22,0,.1-.04.21-.13.33s-.19.28-.3.47c-.11.19-.21.43-.3.72s-.13.65-.13,1.08c0,.5.09.96.26,1.38.17.42.43.78.77,1.08.34.3.74.54,1.23.7.48.17,1.03.25,1.64.25s1.17-.09,1.65-.26c.48-.17.89-.42,1.23-.72.33-.31.59-.67.76-1.08s.26-.86.26-1.33c0-.29-.02-.55-.05-.78-.03-.23-.08-.44-.15-.64-.07-.19-.16-.38-.27-.55-.11-.17-.24-.34-.39-.51-.09-.1-.13-.19-.13-.29Z"/>
          <path class="cls-1" d="m22.62,34.79c-.3-.31-.54-.64-.73-1.01-.18-.36-.27-.79-.27-1.28,0-.41.07-.77.2-1.08.14-.31.33-.57.58-.78.25-.21.55-.37.89-.48s.73-.16,1.15-.16h4.73v1.56h-4.73c-.5,0-.89.12-1.17.35s-.42.58-.42,1.05c0,.35.08.67.24.97.16.3.38.58.66.84h5.42v1.57h-10.8v-1.57h4.24Z"/>
          <path class="cls-1" d="m22.77,28.35c-.78-.84-1.17-1.84-1.17-3.01,0-.43.07-.81.21-1.14.14-.33.33-.61.59-.84.25-.23.55-.4.9-.52s.73-.18,1.16-.18h4.73v.7c0,.15-.02.27-.07.34s-.14.14-.28.2l-.61.15c.17.19.32.38.46.56.13.19.25.38.34.57.09.2.16.41.21.63.05.23.07.48.07.75,0,.3-.04.58-.12.84-.08.26-.21.49-.38.67-.17.19-.38.34-.62.45s-.54.16-.88.16c-.29,0-.57-.08-.84-.23-.27-.15-.52-.41-.73-.76-.22-.35-.4-.82-.54-1.39-.14-.58-.22-1.29-.24-2.13h-.5c-.54,0-.93.11-1.2.34s-.39.56-.39,1.01c0,.3.04.55.11.76.08.2.16.38.25.53.09.15.17.28.24.4s.11.24.11.37c0,.11-.03.2-.08.27-.06.08-.12.14-.21.19l-.51.28Zm3.15-4.16c.02.56.06,1.03.13,1.42.07.38.16.7.27.93s.24.41.39.51c.15.1.32.16.5.16s.33-.03.45-.08c.12-.06.23-.13.31-.23.08-.1.14-.22.17-.35.04-.13.05-.28.05-.44,0-.41-.08-.76-.23-1.05-.15-.29-.38-.58-.67-.86h-1.38Z"/>
          <path class="cls-1" d="m29.29,18.56c0,.62-.17,1.09-.52,1.43-.35.33-.84.5-1.47.5h-4.33v.82c0,.09-.03.16-.08.23-.06.06-.14.09-.25.09h-.63l-.17-1.2-2.15-.34c-.08-.02-.15-.07-.2-.12-.05-.06-.08-.14-.08-.23v-.8h2.44v-2.06h1.13v2.06h4.22c.27,0,.47-.07.61-.2.14-.13.21-.31.21-.53,0-.12-.02-.23-.05-.31-.03-.09-.07-.16-.1-.23-.04-.06-.07-.12-.1-.16-.03-.05-.05-.09-.05-.13,0-.09.05-.16.15-.21l.77-.47c.21.24.38.53.49.86.11.33.17.67.17,1.02Z"/>
        </g>
      </g>
    </g>
  </g>
</svg>