<svg xmlns="http://www.w3.org/2000/svg" height="512" width="512"><rect id="backgroundrect" width="100%" height="100%" x="0" y="0" fill="none" stroke="none"/><g class="currentLayer" style=""><title>Layer 1</title><path fill="#ffffff" fill-opacity="1" stroke="none" stroke-width="1" stroke-dasharray="none" stroke-linejoin="miter" stroke-linecap="butt" stroke-dashoffset="" fill-rule="nonzero" opacity="1" marker-start="" marker-mid="" marker-end="" d="M75.66666227704512,258.95986698045294 C75.66666227704512,154.99476838707008 160.88390533005116,70.78303852642992 266.0903782349968,70.78303852642992 C371.29685113994253,70.78303852642992 456.51409419294856,154.99476838707008 456.51409419294856,258.95986698045294 C456.51409419294856,362.92496557383583 371.29685113994253,447.136695434476 266.0903782349968,447.136695434476 C160.88390533005116,447.136695434476 75.66666227704512,362.92496557383583 75.66666227704512,258.95986698045294 z" id="svg_3" class=""/><path d="m239.69387717213058,210.9801687829857 l-82.953125,87.828124 l75.492187,-41.421874 l39.445313,41.421874 l82.488281,-87.828124 l-74.65625,40.695312 zm0,0 " id="svg_1" class="" stroke="#0b0bd5" stroke-opacity="1" fill="#274f8e" fill-opacity="1"/><path d="m256 0c-141.363281 0-256 114.636719-256 256s114.636719 256 256 256 256-114.636719 256-256-114.636719-256-256-256zm2 393.035156c-15.847656 0-31.144531-2.238281-45.535156-6.382812l-51.625 29.347656v-55.210938c-34.578125-26.3125-56.660156-66.386718-56.660156-111.269531 0-79.265625 68.867187-143.519531 153.820312-143.519531 84.957031 0 153.820312 64.253906 153.820312 143.519531 0 79.257813-68.863281 143.515625-153.820312 143.515625zm0 0" id="svg_2" class="" fill="#274f8e" fill-opacity="1" stroke-opacity="1" stroke="#274f8e"/></g></svg>